<svg
  xmlns="http://www.w3.org/2000/svg"
  width="450px"
  height="150px"
  viewBox="0 0 470 150"
>
  <defs>
    <symbol>
      <!-- Test Symbol  -->
      <pattern id="checkPattern" width="2%" height="6%" viewBox="0 0 10 10" >
        <rect x="0" y="0" width="5" height="5" fill="gray" />
        <rect x="5" y="0" width="5" height="5" fill="black" />
        <rect x="0" y="5" width="5" height="5" fill="black" />
        <rect x="5" y="5" width="5" height="5" fill="gray" />
      </pattern>

      <!-- Main Symbols -->
      <svg id="redBase" viewBox="0 0 100 100">
        <defs>
          <linearGradient id="redBaseFill" x1="0%" y1="0%" x2="50%" y2="100%">
            <stop offset="0%" style="stop-color: hsl(0, 100%, 40%);" />
            <stop offset="15%" style="stop-color: hsl(0, 100%, 40%);" />
            <stop offset="25%" style="stop-color: hsl(0, 100%, 50%);" />
            <stop offset="50%" style="stop-color: hsl(0 100 40%);" />
            <stop offset="75%" style="stop-color: hsl(0, 100%, 45%);" />
            <stop offset="100%" style="stop-color: hsl(0, 100%, 30%);" />
          </linearGradient>
        </defs>

        <rect x="0" y="0" width="100" height="100" rx="5" fill="url(#redBaseFill)" />
        <rect x="7" y="6" width="86" height="86" rx="10" stroke="hsl(0, 100%, 70%)" stroke-width="1" fill="rgb(250, 0, 0)" />
      </svg>
      <svg id="greenBase" viewBox="0 0 100 100">
        <defs>
          <linearGradient id="greenBaseFill" x1="0%" y1="0%" x2="50%" y2="100%">
            <stop offset="0%" style="stop-color: hsl(120 100 40%);" />
            <stop offset="50%" style="stop-color: hsl(120 100 40%);" />
            <stop offset="75%" style="stop-color: hsl(120 100 45%);" />
            <stop offset="100%" style="stop-color: hsl(120 100 30%);" />
          </linearGradient>
          <linearGradient id="greenBaseFill2" x1="100%" y1="0%" x2="100%" y2="100%">
            <stop offset="0%" style="stop-color: hsl(120 100 60%);" />
            <stop offset="100%" style="stop-color: hsl(120 100 42%);" />
          </linearGradient>
          <linearGradient id="greenStroke" x1="100%" y1="0%" x2="100%" y2="100%">
            <stop offset="0%" style="stop-color: hsl(120 100 65%);" />
            <stop offset="100%" style="stop-color: hsl(120 100 45%);" />
          </linearGradient>
        </defs>

        <rect x="0" y="0" width="100" height="100" rx="5" fill="url(#greenBaseFill)" />
        <rect x="7" y="6" width="86" height="86" rx="10" stroke="url(#greenStroke)" stroke-width="1" fill="url(#greenBaseFill2)" />
      </svg>
      <svg id="char_A" viewBox="0 0 100 100">
        <line x1="50" y1="20" x2="25" y2="85" stroke="white" stroke-width="8" />
        <line x1="50" y1="17" x2="75" y2="85" stroke="white" stroke-width="8" />
        <line x1="40" y1="50" x2="62" y2="50" stroke="white" stroke-width="8" />
      </svg>
      <svg id="char_H" viewBox="0 0 100 100">
        <line x1="25" y1="18" x2="25" y2="85" stroke="white" stroke-width="8" />
        <line x1="75" y1="18" x2="75" y2="85" stroke="white" stroke-width="8" />
        <line x1="25" y1="50" x2="75" y2="50" stroke="white" stroke-width="8" />
      </svg>
      <svg id="char_K" viewBox="0 0 100 100">
        <line x1="30" y1="18" x2="30" y2="85" stroke="white" stroke-width="8" />
        <line x1="30" y1="50" x2="70" y2="18" stroke="white" stroke-width="8" />
        <line x1="35" y1="45" x2="70" y2="85" stroke="white" stroke-width="8" />
      </svg>
    </symbol>

    <linearGradient id="baseStyle" x1="100%" y1="0%" x2="100%" y2="100%">
      <stop offset="0%" style="stop-color: rgb(0, 225, 0);" />
      <stop offset="100%" style="stop-color: rgb(0, 150, 0);" />
    </linearGradient>
  </defs>

  <!-- Test Backgrounds -->
  <!-- <rect x="0" y="0" width="100%" height="100%" fill="white" /> -->
  <!-- <rect x="0" y="0" width="100%" height="100%" fill="url(#checkPattern)" /> -->

  <!-- Main -->
  <use href="#redBase" x="5" y="0" width="150" height="150" />
  <use href="#char_A" x="15" y="10" width="125" height="125" />

  <use href="#greenBase" x="160" y="0" width="150" height="150" />
  <use href="#char_H" x="160" y="10" width="150" height="125" />

  <use href="#redBase" x="315" y="0" width="150" height="150" />
  <use href="#char_K" x="315" y="10" width="150" height="125" />
</svg>